<svg xmlns="http://www.w3.org/2000/svg" xmlns:xlink="http://www.w3.org/1999/xlink" viewBox="0 0 496.80002 202.82813">
  <g id="Layer_2" data-name="Layer 2">
    <g id="Layer_1-2" data-name="Layer 1">
      <image width="2070" height="616" transform="scale(0.24)" xlink:href="roku-logo.png"/>
      <g>
        <path d="M36.919,168.99609l-6.44727.353,1.78223,32.55322-16.91065.92578L13.561,170.2749l-2.11426.11572A7.36326,7.36326,0,0,1,3.644,163.39746a7.501,7.501,0,0,1,6.99268-7.80371L12.751,155.478l-.06348-1.16211A25.34291,25.34291,0,0,1,36.665,127.561a8.46774,8.46774,0,1,1,.92578,16.91015,8.49348,8.49348,0,0,0-7.99268,8.91895l.06348,1.16211,6.44727-.353a7.40951,7.40951,0,0,1,.81006,14.79687Zm3.88037-6.57324a.99958.99958,0,0,0,.99951-1.11426,5.37841,5.37841,0,0,0-5.57422-4.99511,1.05871,1.05871,0,0,0,.11572,2.11425,3.25547,3.25547,0,0,1,3.34424,2.99659A.99923.99923,0,0,0,40.79932,162.42285Zm1.6538-25.95605a1.00006,1.00006,0,0,0,.998-1.11524,6.36918,6.36918,0,0,0-6.688-5.99365,1.05822,1.05822,0,1,0,.11573,2.11328,4.24624,4.24624,0,0,1,4.459,3.9961A1.00039,1.00039,0,0,0,42.45312,136.4668Z" style="fill: #fff"/>
        <path d="M50.84863,134.94678a8.468,8.468,0,0,1,16.91065-.92627l3.59912,65.74023-16.91065.92578Zm13.79785.30517a1.00118,1.00118,0,0,0,.999-1.11572,6.36933,6.36933,0,0,0-6.68848-5.99365,1.05822,1.05822,0,1,0,.11572,2.11328,4.24658,4.24658,0,0,1,4.459,3.99609A1.00085,1.00085,0,0,0,64.64648,135.252Z" style="fill: #fff"/>
        <path d="M77.41309,174.83545c-.8042-14.69043,9.8623-27.041,23.91943-27.81055s26.0083,10.34229,26.8125,25.03272l1.34228,24.5205-16.91064.92579-1.34228-24.52c-.30665-5.60059-4.37159-10.14942-9.022-9.89453-4.65039.25439-8.19531,5.21972-7.88867,10.82031.26611,4.8623,3.3457,8.82812,6.8335,8.63721a8.07953,8.07953,0,0,1,8.8955,7.56933c.249,4.54492-2.94238,8.21777-8.01562,8.49609C89.24854,199.3125,78.17139,188.68213,77.41309,174.83545Zm23.03613-24.583a.99959.99959,0,0,0,1.11474.999c11.73194-.64257,21.67627,8.67286,22.35352,21.03809a1.05871,1.05871,0,0,0,2.11426-.11572c-.74072-13.52832-11.689-23.7417-24.5835-23.03565A.9997.9997,0,0,0,100.44922,150.25244Z" style="fill: #fff"/>
        <path d="M174.07031,143.46582A6.99857,6.99857,0,1,1,174.834,157.418l-24.73193,1.354a2.08459,2.08459,0,0,0-2.10351,2.23438,2.14627,2.14627,0,0,0,2.335,1.99219l17.96777-.98389c8.34912-.457,15.61279,6.354,16.10449,15.3374.49219,8.98438-5.98486,16.54736-14.334,17.0044l-32.13086,1.75878-.76367-13.95068,32.13086-1.75928a2.14614,2.14614,0,0,0,2.10351-2.23486,2.0856,2.0856,0,0,0-2.335-1.99268l-17.96777.98389c-8.34961.457-15.61328-6.35449-16.105-15.33789s5.98486-16.54687,14.33447-17.00391Zm7.22315,35.11768a1.0007,1.0007,0,0,0,.999-1.11573c-.42822-7.82129-6.68848-13.73242-13.87549-13.33886a1.05871,1.05871,0,0,0,.11572,2.11425c6.02393-.33007,11.28125,4.68213,11.64551,11.34034A1.00073,1.00073,0,0,0,181.29346,178.5835Zm-8.10694-31.88916a1.00054,1.00054,0,0,0,1.11524.999,3.053,3.053,0,0,1,3.3208,2.57422,1.05871,1.05871,0,1,0,2.11426-.11572,5.16425,5.16425,0,0,0-5.55078-4.57178A1.00007,1.00007,0,0,0,173.18652,146.69434Z" style="fill: #fff"/>
        <path d="M209.59863,192.19238l-16.91064.92578-3.59912-65.74023a8.468,8.468,0,0,1,16.91064-.92578l.78125,14.26855a25.61386,25.61386,0,0,0-8.65967,6.41065l.89209.79931a25.03,25.03,0,0,1,16.252-7.14355c14.05713-.76953,26.0083,10.34277,26.813,25.0332l1.3418,24.52051-16.91064.92578-1.354-24.73144c-.30078-5.4961-3.31494-10.208-9.022-9.89551-5.70752.3125-8.18945,5.32519-7.88867,10.82129Zm-6.71191-64.50927a1.00078,1.00078,0,0,0,.999-1.11524,6.36932,6.36932,0,0,0-6.68847-5.99365,1.05822,1.05822,0,1,0,.11572,2.11328,4.24654,4.24654,0,0,1,4.459,3.99609A1.00024,1.00024,0,0,0,202.88672,127.68311ZM239.96387,165.936c-.74073-13.52833-11.689-23.7417-24.583-23.03565a1.05822,1.05822,0,1,0,.11572,2.11328c11.73145-.64258,21.67627,8.67285,22.35352,21.03809a1.05847,1.05847,0,0,0,2.11377-.11572Z" style="fill: #fff"/>
        <path d="M265.9668,137.48047a25.6103,25.6103,0,0,0-8.65918,6.41064l.8916.79932a25.03008,25.03008,0,0,1,16.25195-7.144c14.05762-.76953,26.00781,10.34277,26.8125,25.0332.80469,14.69238-9.8623,27.043-23.91894,27.8125-14.05762.77-26.00879-10.34229-26.81348-25.03467l-2.25586-41.21972a8.46774,8.46774,0,0,1,16.91016-.92579Zm-3.89356-13.0376a1.00092,1.00092,0,0,0,.999-1.11572,6.3686,6.3686,0,0,0-6.68848-5.99317,1.05822,1.05822,0,1,0,.11523,2.11329,4.24594,4.24594,0,0,1,4.459,3.99609A1.00089,1.00089,0,0,0,262.07324,124.44287Zm14.40332,50.09473c5.708-.312,8.2002-5.11328,7.877-11.03223-.30176-5.49512-3.31543-10.20654-9.02247-9.89453-5.707.3125-8.18945,5.32568-7.88867,10.8208C267.7666,170.35059,270.76953,174.8501,276.47656,174.5376Zm21.67481-10.72754a.99962.99962,0,0,0,.999-1.11475c-.74023-13.52832-11.68848-23.74121-24.583-23.03564a1.05821,1.05821,0,1,0,.11524,2.11328c11.73144-.64209,21.67676,8.67285,22.35351,21.03809A1,1,0,0,0,298.15137,163.81006Z" style="fill: #fff"/>
        <path d="M307.60352,162.23242c-.80469-14.69043,9.8623-27.041,23.91992-27.81054,14.05664-.76954,26.00781,10.34277,26.8125,25.0332l1.34179,24.52051-16.91015.92578-1.34278-24.52051c-.30664-5.60059-4.37207-10.14893-9.02246-9.89453-4.65039.25488-8.19531,5.21972-7.88867,10.82031.2666,4.86231,3.34668,8.82813,6.834,8.63721a8.07954,8.07954,0,0,1,8.8955,7.56933c.249,4.54493-2.94238,8.21827-8.01562,8.4961C319.43848,186.70947,308.36133,176.0791,307.60352,162.23242Zm23.03613-24.58252a.99916.99916,0,0,0,1.11523.99854c11.73145-.64209,21.67578,8.67285,22.35254,21.03808a1.0592,1.0592,0,0,0,2.11524-.11572c-.74121-13.52832-11.68946-23.7417-24.584-23.03564A1.00009,1.00009,0,0,0,330.63965,137.6499Z" style="fill: #fff"/>
        <path d="M389.65234,131.23926a26.04429,26.04429,0,0,1,18.37207,6.41406c2.11817,1.89746,3.17969,3.85449,3.28418,5.75684.1211,2.21972-.93164,4.292-2.624,6.293a5.58733,5.58733,0,0,1-3.92969,1.80372,8.51959,8.51959,0,0,1-6.06347-2.31739c-3.22657-2.7915-4.68164-4.19677-8.27539-4-5.708.3125-8.1377,6.27637-7.77344,12.93457.28418,5.17969,3.32715,10.41895,9.03515,10.10645l19.02442-1.04151.76367,13.95118-19.02441,1.0415c-14.05762.76953-25.96289-9.49658-26.709-23.13135C364.92773,144.35986,375.59473,132.00879,389.65234,131.23926Zm17.18946,9.97754a1.06139,1.06139,0,0,0-.08692-1.58594,22.78139,22.78139,0,0,0-16.9873-6.27832,1.05824,1.05824,0,1,0,.11621,2.11328c5.91894-.32373,11.74707,1.58447,15.47266,5.72656A.8914.8914,0,0,0,406.8418,141.2168Z" style="fill: #fff"/>
        <path d="M437.252,179.72852l-16.91015.92578-3.542-64.68262a8.46823,8.46823,0,0,1,16.91114-.92578l1.64941,30.12109a25.66849,25.66849,0,0,0-8.66015,6.41065l.8916.79931a25.30144,25.30144,0,0,1,15.93554-7.12646l6.6045-12.97608a8.476,8.476,0,0,1,7.167-4.63379,8.2696,8.2696,0,0,1,4.17969.832,8.6453,8.6453,0,0,1,4.63867,7.27246,8.28,8.28,0,0,1-.83106,4.17968l-5.16894,10.14161a25.39163,25.39163,0,0,1,10.48242,19.144l.47461,8.666-16.91113.92627-.48633-8.87793c-.30078-5.49511-3.31446-10.207-9.02246-9.89453-5.707.3125-8.18946,5.3252-7.88868,10.82032Zm-6.65332-63.45264a1.00024,1.00024,0,0,0,.999-1.11426,6.37034,6.37034,0,0,0-6.68946-5.99463,1.05824,1.05824,0,0,0,.11621,2.11328,4.24667,4.24667,0,0,1,4.459,3.99707A.99969.99969,0,0,0,430.59863,116.27588ZM462.793,136.98779a1.07176,1.07176,0,0,0,1.22168-.915,6.32843,6.32843,0,0,0-6.18945-6.55224,1.14938,1.14938,0,0,0-1.21582,1.021,1.04414,1.04414,0,0,0,1.00878,1.0044,4.52608,4.52608,0,0,1,4.166,4.43652A.97314.97314,0,0,0,462.793,136.98779Zm4.69336,33.45313a.99957.99957,0,0,0,.999-1.11475,23.44673,23.44673,0,0,0-9.32715-17.40478l-.95312,1.96a20.96952,20.96952,0,0,1,8.167,15.56054A.99973.99973,0,0,0,467.48633,170.44092Z" style="fill: #fff"/>
      </g>
    </g>
  </g>
</svg>
