<svg id="Layer_1" data-name="Layer 1" xmlns="http://www.w3.org/2000/svg" viewBox="0 0 2499.57571 1001.39083">
  <path d="M430.65928,255.15743c0-71.00354-57.12306-128.1841-126.97324-128.1841H240.71857V382.20824H303.686c69.85018,0,126.97324-57.22064,126.97324-127.05081M717.0902,763.97592H485.94594L302.43762,509.31151h-61.719V763.42558H37.01253V0h291.82c168.2318,0,305.54785,114.40128,305.54785,255.15734,0,85.84475-52.64215,162.52006-132.75756,209.43539L717.09027,763.97592" transform="translate(-37.01253 -0.00001)" style="fill: #6c3c97"/>
  <path d="M946.8234,300.97192c-53.79559,0-99.555,73.1226-99.555,163.63838s45.75952,163.731,99.555,163.731c55.044,0,100.72848-73.21773,100.72848-163.73092,0-90.51822-45.68446-163.63838-100.7284-163.63838m313.54631,163.63838c0,172.92043-140.62359,311.38969-313.54639,311.38969-172.8653,0-312.45059-138.46941-312.45059-311.38976,0-172.79026,139.58521-311.33472,312.45052-311.33472,172.92287,0,313.54631,138.54446,313.54631,311.33472m478.03555-298.67266L1503.74571,400.55955V165.16206H1300.0796V763.42314h203.66611V520.74522l244.98465,242.67792h256.3482l-311.317-311.35732L1951.6209,194.30146V549.33413c0,117.87634,70.8884,226.66089,249.408,226.66089,84.749,0,162.52-48.06617,200.31856-91.5566l91.57661,78.982h43.47271V165.93764H2332.72821V552.77682C2309.79344,592.807,2277.837,617.976,2228.447,617.976c-50.11025,0-73.10259-29.70745-73.10259-124.72652V165.93764H1738.40519Z" transform="translate(-37.01253 -0.00001)" style="fill: #6c3c97"/>
  <g>
    <path d="M215.70148,820.53316l-34.46549,1.8872,9.52735,174.02148-90.40013,4.949L90.83587,827.36936l-11.3023.61862a39.36214,39.36214,0,0,1-41.71149-37.38372c-1.17721-21.46654,15.912-40.5395,37.38112-41.71671l11.3023-.61863-.33933-6.21235a135.477,135.477,0,0,1,128.178-143.025,45.26645,45.26645,0,1,1,4.949,90.39752,45.404,45.404,0,0,0-42.72687,47.67847l.33933,6.21235,34.46549-1.88719c21.46915-1.17461,40.53949,15.9198,41.7141,37.38633A39.72314,39.72314,0,0,1,215.70148,820.53316ZM236.445,785.39424a5.34351,5.34351,0,0,0,5.34314-5.95655c-.83528-15.25419-14.54421-27.53794-29.7984-26.70266a5.65961,5.65961,0,0,0,.61863,11.3023,17.40292,17.40292,0,0,1,17.87747,16.019A5.34166,5.34166,0,0,0,236.445,785.39424Zm8.84085-138.75466a5.346,5.346,0,0,0,5.33531-5.96176,34.048,34.048,0,0,0-35.75233-32.04059,5.657,5.657,0,1,0,.61862,11.29708,22.69937,22.69937,0,0,1,23.83663,21.36213A5.34782,5.34782,0,0,0,245.28584,646.63958Z" transform="translate(-37.01253 -0.00001)" style="fill: #fff"/>
    <path d="M290.16615,638.51394a45.26781,45.26781,0,0,1,90.40012-4.95161l19.24,351.431-90.40012,4.949Zm73.7599,1.63139a5.35206,5.35206,0,0,0,5.34053-5.96438,34.0488,34.0488,0,0,0-35.75494-32.04058,5.657,5.657,0,1,0,.61863,11.29708,22.70114,22.70114,0,0,1,23.83662,21.36213A5.35032,5.35032,0,0,0,363.926,640.14533Z" transform="translate(-37.01253 -0.00001)" style="fill: #fff"/>
    <path d="M432.17315,851.74891c-4.29905-78.5314,52.72144-144.55458,127.86737-148.6683s139.034,55.2873,143.333,133.8187L710.549,967.97988l-90.40012,4.949-7.17552-131.078c-1.63923-29.93935-23.3694-54.25626-48.22924-52.89372-24.85984,1.35993-43.81011,27.90337-42.17089,57.84272,1.42258,25.99267,17.8853,47.193,36.53018,46.17237,27.1203-1.48522,46.28461,17.30061,47.55319,40.4638,1.33121,24.296-15.72925,43.93018-42.84955,45.418C495.44253,982.59718,436.22683,925.76984,432.17315,851.74891ZM555.31862,720.33423a5.34357,5.34357,0,0,0,5.95915,5.34053c62.716-3.43506,115.876,46.36292,119.49637,112.46441a5.65961,5.65961,0,0,0,11.3023-.61862c-3.95972-72.31906-62.48632-126.91726-131.41729-123.14287A5.34414,5.34414,0,0,0,555.31862,720.33423Z" transform="translate(-37.01253 -0.00001)" style="fill: #fff"/>
    <path d="M948.87878,684.05463c21.46915-1.17721,40.47424,14.78435,41.58881,35.12327,1.14328,20.908-16.03726,38.28426-37.50641,39.46147l-132.2108,7.23817c-6.77877.37065-11.61553,5.163-11.24487,11.94442.37065,6.77615,6.26716,10.98907,12.48212,10.64974l96.05127-5.25962c44.63234-2.44317,83.46214,33.96694,86.09064,81.99,2.63111,48.02825-31.9936,88.45812-76.62594,90.90129L755.74,965.50538l-4.0824-74.5769,171.76363-9.40466c6.21235-.33933,11.61553-5.17087,11.24488-11.947-.37066-6.78138-5.70336-11.023-12.48213-10.65235l-96.05127,5.25961c-44.635,2.44318-83.46474-33.96954-86.09325-81.99257S772.033,693.736,816.668,691.2928Zm38.61315,187.73042a5.34948,5.34948,0,0,0,5.34053-5.96438c-2.28917-41.81068-35.75494-73.41013-74.17493-71.30629a5.65961,5.65961,0,0,0,.61862,11.3023c32.20242-1.76451,60.30678,25.0295,62.254,60.62261A5.34962,5.34962,0,0,0,987.49193,871.78505ZM944.15426,701.31348A5.34861,5.34861,0,0,0,950.116,706.654c9.03923-.49594,17.31888,5.85736,17.75218,13.76114a5.65961,5.65961,0,1,0,11.3023-.61863c-.77263-14.12657-14.41891-25.27486-29.6731-24.43959A5.34609,5.34609,0,0,0,944.15426,701.31348Z" transform="translate(-37.01253 -0.00001)" style="fill: #fff"/>
    <path d="M1138.8044,944.53479l-90.40013,4.949-19.24-351.431a45.26775,45.26775,0,0,1,90.40013-4.949l4.17637,76.27617c-17.71042,7.76543-33.47621,19.96565-46.29245,34.26972l4.76889,4.27294a133.80373,133.80373,0,0,1,86.87893-38.18767c75.14593-4.11373,139.03394,55.28991,143.3356,133.82131l7.17292,131.08057-90.40013,4.949-7.23817-132.20819c-1.6079-29.38076-17.72085-54.56949-48.22923-52.89894-30.511,1.67055-43.77879,28.46718-42.17089,57.84794Zm-35.88023-344.85065a5.3499,5.3499,0,0,0,5.34053-5.96177,34.04882,34.04882,0,0,0-35.75494-32.04058,5.657,5.657,0,1,0,.61862,11.29708A22.701,22.701,0,0,1,1096.965,594.341,5.34694,5.34694,0,0,0,1102.92417,599.68414Zm198.20526,204.49071c-3.95972-72.31906-62.48631-126.91726-131.41468-123.14286a5.657,5.657,0,1,0,.61863,11.29707c62.7134-3.43506,115.876,46.36293,119.49636,112.46441a5.65831,5.65831,0,0,0,11.29969-.61862Z" transform="translate(-37.01253 -0.00001)" style="fill: #fff"/>
    <path d="M1440.13467,652.05842c-17.70781,7.76544-33.4736,19.96305-46.28984,34.26972l4.76629,4.273A133.805,133.805,0,0,1,1485.49,652.4108c75.14854-4.11372,139.03133,55.28991,143.333,133.82132,4.30167,78.54185-52.72144,144.565-127.86476,148.67875-75.14855,4.11633-139.03656-55.2873-143.33822-133.82915l-12.05927-220.35046a45.26645,45.26645,0,1,1,90.39752-4.949Zm-20.814-69.69577a5.35062,5.35062,0,0,0,5.34053-5.96438,34.04492,34.04492,0,0,0-35.75494-32.038,5.65693,5.65693,0,1,0,.616,11.29708,22.69778,22.69778,0,0,1,23.83663,21.36213A5.35055,5.35055,0,0,0,1419.32069,582.36265Zm76.99659,267.794c30.51359-1.66793,43.83621-27.33433,42.10824-58.97555-1.61312-29.37554-17.72347-54.56166-48.23185-52.89372-30.50837,1.67055-43.77879,28.46979-42.17088,57.84532C1449.756,827.77394,1465.8089,851.82722,1496.31728,850.15667Zm115.86814-57.34677a5.34374,5.34374,0,0,0,5.34054-5.95916c-3.95711-72.319-62.48371-126.91464-131.41469-123.14286a5.65693,5.65693,0,1,0,.616,11.29708c62.7134-3.43245,115.87859,46.36292,119.49637,112.46441A5.34573,5.34573,0,0,0,1612.18542,792.8099Z" transform="translate(-37.01253 -0.00001)" style="fill: #fff"/>
    <path d="M1662.71427,784.37625c-4.30166-78.53141,52.72144-144.55459,127.87-148.66831,75.14333-4.11373,139.03134,55.28991,143.333,133.82131l7.17291,131.08057-90.39751,4.949-7.17814-131.08057c-1.63922-29.93935-23.372-54.25365-48.23184-52.89372-24.85984,1.36254-43.81012,27.90337-42.17089,57.84272,1.42518,25.99268,17.89052,47.193,36.53279,46.17237,27.1203-1.48522,46.28461,17.30061,47.55318,40.4638,1.33122,24.296-15.72925,43.93279-42.84955,45.418C1725.98105,915.22451,1666.76535,858.39717,1662.71427,784.37625Zm123.14547-131.41208a5.34125,5.34125,0,0,0,5.96177,5.33793c62.71341-3.43246,115.87337,46.36292,119.49115,112.4644a5.66222,5.66222,0,0,0,11.30752-.61862c-3.96233-72.31906-62.48893-126.91726-131.41991-123.14286A5.3463,5.3463,0,0,0,1785.85974,652.96417Z" transform="translate(-37.01253 -0.00001)" style="fill: #fff"/>
    <path d="M2101.327,618.69445c34.46549-1.88719,69.66706,9.78315,98.21255,34.288,11.32318,10.14335,16.99782,20.60516,17.55641,30.77462.64734,11.86611-4.98032,22.94393-14.02738,33.64065a29.86848,29.86848,0,0,1-21.00714,9.64219c-9.60565.52466-21.691-2.77728-32.41384-12.38815-17.24841-14.92269-25.0269-22.43494-44.2382-21.383-30.5136,1.67055-43.5021,33.55191-41.55487,69.145,1.51915,27.68933,17.78611,55.69711,48.29971,54.02656l101.69981-5.56762,4.0824,74.57951-101.69981,5.56763c-75.14855,4.11372-138.79119-50.76638-142.77963-123.65447C1969.15537,688.834,2026.17848,622.80818,2101.327,618.69445Zm91.89057,53.33746c2.66765-2.98088,1.95245-5.77383-.46462-8.478-23.89928-22.48975-55.78064-35.47826-90.80993-33.56235a5.65707,5.65707,0,1,0,.62123,11.29708c31.64122-1.73058,62.79693,8.4702,82.713,30.61279C2187.68912,674.60038,2190.54993,675.01018,2193.21759,672.03191Z" transform="translate(-37.01253 -0.00001)" style="fill: #fff"/>
    <path d="M2355.78277,877.906l-90.39752,4.949-18.93461-345.77728a45.269,45.269,0,0,1,90.40273-4.949l8.81736,161.01992c-17.70781,7.77587-33.4736,19.97087-46.295,34.26972l4.76628,4.273a135.25533,135.25533,0,0,1,85.18749-38.09632l35.306-69.36689a45.31072,45.31072,0,0,1,38.313-24.77109,44.207,44.207,0,0,1,22.34358,4.44783c15.155,7.66886,23.9306,23.05878,24.79719,38.87678a44.2623,44.2623,0,0,1-4.44261,22.34358l-27.6319,54.21449a135.73736,135.73736,0,0,1,56.03643,102.33932l2.53715,46.32638L2446.1855,872.957l-2.59979-47.45922c-1.6079-29.37554-17.71825-54.56426-48.23185-52.89372-30.50837,1.67055-43.77879,28.46718-42.17088,57.84272Zm-35.567-339.20211a5.347,5.347,0,0,0,5.34053-5.95655,34.05418,34.05418,0,0,0-35.76016-32.0458,5.65707,5.65707,0,0,0,.62123,11.29708A22.70163,22.70163,0,0,1,2314.254,533.366,5.34411,5.34411,0,0,0,2320.21576,538.70393Zm172.103,110.72077a5.72936,5.72936,0,0,0,6.5308-4.89157c.61079-19.86908-14.31973-33.78683-33.08729-35.02669-2.85559-.4072-6.11838,2.03337-6.49947,5.458.15661,2.82427,2.56846,5.52325,5.39273,5.36925,11.33363-.05482,22.15042,11.25531,22.27049,23.71656C2487.1087,647.43831,2488.8941,649.041,2492.31872,649.4247Zm25.08954,178.83214a5.34343,5.34343,0,0,0,5.34053-5.95916c-2.10384-38.4226-21.477-71.35849-49.86063-93.04168l-5.09517,10.47747a112.09783,112.09783,0,0,1,43.65872,83.18283A5.3443,5.3443,0,0,0,2517.40826,828.25684Z" transform="translate(-37.01253 -0.00001)" style="fill: #fff"/>
  </g>
</svg>
